<svg width="55" height="48" viewBox="0 0 55 48" fill="none" xmlns="http://www.w3.org/2000/svg">
<path d="M13.295 38.3424H14.6374C14.8611 36.9361 15.5003 35.4339 16.5231 33.8038C18.5367 30.5757 22.6598 27.4434 26.2714 26.7083V25.3659C24.4816 24.9824 22.7556 24.1834 21.0936 23.0008C17.7376 20.6036 15.1807 17.0559 14.6374 13.7958H13.295C12.9754 15.5217 12.2402 17.1837 11.0896 18.8138C8.78837 22.0739 5.27258 24.5669 1.72483 25.3659V26.7083C3.48272 27.0599 5.30454 27.9548 7.15832 29.3611C10.8659 32.1738 12.8475 35.5937 13.295 38.3424ZM13.7424 37.5753C13.4867 34.507 12.4959 30.8314 11.3133 28.7539C9.13995 27.5393 5.40043 26.5485 2.49191 26.3248V25.8773C5.43239 25.6536 9.26779 24.5669 11.3133 23.3843C12.5279 21.2429 13.4867 17.6312 13.7424 14.6268H14.1899C14.5095 17.9508 15.5003 21.4666 16.619 23.3843C18.6006 24.5669 22.6278 25.6536 25.4404 25.8773V26.3248C22.6278 26.5166 18.7604 27.5393 16.619 28.7539C15.5003 30.6396 14.5095 34.2513 14.1899 37.5753H13.7424Z" fill="white"/>
<path d="M26.5379 38.3425H27.8803C28.104 36.9361 28.7432 35.4339 29.766 33.8039C31.7796 30.5758 35.9027 27.4435 39.5143 26.7084V25.366C37.7245 24.9825 35.9986 24.1834 34.3365 23.0008C30.9806 20.6037 28.4236 17.0559 27.8803 13.7959H26.5379C26.2183 15.5218 25.4832 17.1838 24.3325 18.8138C22.0313 22.0739 18.5155 24.567 14.9677 25.366V26.7084C16.7256 27.06 18.5475 27.9549 20.4012 29.3612C24.1088 32.1738 26.0904 35.5937 26.5379 38.3425ZM26.9854 37.5754C26.7297 34.507 25.7388 30.8314 24.5563 28.7539C22.3829 27.5394 18.6433 26.5486 15.7348 26.3248V25.8774C18.6753 25.6537 22.5107 24.567 24.5563 23.3844C25.7708 21.2429 26.7297 17.6313 26.9854 14.6269H27.4328C27.7524 17.9509 28.7432 21.4667 29.8619 23.3844C31.8435 24.567 35.8707 25.6537 38.6833 25.8774V26.3248C35.8707 26.5166 32.0033 27.5394 29.8619 28.7539C28.7432 30.6397 27.7524 34.2514 27.4328 37.5754H26.9854Z" fill="white"/>
<path d="M39.7889 38.3425H41.1313C41.355 36.9361 41.9942 35.4339 43.017 33.8039C45.0306 30.5758 49.1537 27.4435 52.7653 26.7084V25.366C50.9755 24.9825 49.2495 24.1834 47.5875 23.0008C44.2315 20.6037 41.6746 17.0559 41.1313 13.7959H39.7889C39.4692 15.5218 38.7341 17.1838 37.5835 18.8138C35.2823 22.0739 31.7665 24.567 28.2187 25.366V26.7084C29.9766 27.06 31.7984 27.9549 33.6522 29.3612C37.3598 32.1738 39.3414 35.5937 39.7889 38.3425ZM40.2363 37.5754C39.9806 34.507 38.9898 30.8314 37.8072 28.7539C35.6338 27.5394 31.8943 26.5486 28.9858 26.3248V25.8774C31.9263 25.6537 35.7617 24.567 37.8072 23.3844C39.0218 21.2429 39.9806 17.6313 40.2363 14.6269H40.6838C41.0034 17.9509 41.9942 21.4667 43.1129 23.3844C45.0945 24.567 49.1217 25.6537 51.9343 25.8774V26.3248C49.1217 26.5166 45.2543 27.5394 43.1129 28.7539C41.9942 30.6397 41.0034 34.2514 40.6838 37.5754H40.2363Z" fill="white"/>
</svg>
