<svg width="18" height="15" viewBox="0 0 18 15" fill="none" xmlns="http://www.w3.org/2000/svg">
<path d="M14.2398 0.323968C13.9102 -0.0202651 13.3975 -0.0129401 13.0752 0.323968L9.38375 4.10329C9.23733 4.24979 9.14208 4.47679 9.14208 4.67454C9.14208 5.13596 9.46433 5.45096 9.9185 5.45096C10.1382 5.45096 10.314 5.37771 10.4604 5.22388L11.9693 3.65649L12.936 2.54321L12.8774 4.09596V13.6028C12.8774 14.0569 13.207 14.3865 13.6612 14.3865C14.1153 14.3865 14.4375 14.0569 14.4375 13.6028V4.09596L14.3863 2.54321L15.3457 3.65649L16.8545 5.22388C17.001 5.37771 17.1841 5.45096 17.4038 5.45096C17.8506 5.45096 18.1728 5.13596 18.1728 4.67454C18.1728 4.47679 18.0777 4.24979 17.9312 4.10329L14.2398 0.323968ZM4.54248 14.1301C4.87207 14.4744 5.38477 14.467 5.70703 14.1301L9.39842 10.3581C9.54492 10.2044 9.64017 9.97729 9.64017 9.77954C9.64017 9.32546 9.31783 9.01046 8.86375 9.01046C8.65133 9.01046 8.46825 9.08371 8.32175 9.23021L6.813 10.7976L5.85352 11.9109L5.90478 10.3581V0.851318C5.90478 0.404535 5.5752 0.067627 5.12109 0.067627C4.67432 0.067627 4.34473 0.404535 4.34473 0.851318V10.3581L4.396 11.9109L3.43652 10.7976L1.92773 9.23021C1.78125 9.08371 1.59814 9.01046 1.38574 9.01046C0.931642 9.01046 0.609375 9.32546 0.609375 9.77954C0.609375 9.97729 0.704592 10.2044 0.851075 10.3581L4.54248 14.1301Z" fill="white"/>
</svg>
