<svg width="21" height="21" viewBox="0 0 21 21" fill="none" xmlns="http://www.w3.org/2000/svg">
<path d="M5.37389 13.8697C5.37313 14.4684 5.51714 14.9115 5.80591 15.1991C6.09392 15.4874 6.5309 15.6292 7.11685 15.6246H8.42091C8.47539 15.6226 8.52974 15.6317 8.58057 15.6514C8.63141 15.6711 8.6777 15.701 8.71656 15.7393L9.64478 16.6569C10.0665 17.0783 10.4798 17.2878 10.8846 17.2855C11.2895 17.2832 11.7028 17.0737 12.1245 16.6569L13.0413 15.7393C13.0815 15.7006 13.1291 15.6704 13.1813 15.6507C13.2335 15.631 13.2892 15.6221 13.3449 15.6246H14.641C15.233 15.6254 15.6742 15.4812 15.9645 15.1922C16.2548 14.9031 16.4 14.46 16.4 13.8628V12.5655C16.397 12.4531 16.4382 12.344 16.5146 12.2615L17.4313 11.3439C17.8584 10.9241 18.0704 10.5108 18.0673 10.104C18.0643 9.69716 17.8523 9.28346 17.4313 8.86289L16.5146 7.94526C16.4379 7.86297 16.3968 7.75376 16.4 7.6413V6.34401C16.3992 5.74602 16.2552 5.30289 15.968 5.0146C15.6807 4.72632 15.2384 4.58217 14.641 4.58217H13.3449C13.2892 4.58447 13.2336 4.57549 13.1814 4.55579C13.1293 4.53608 13.0816 4.50604 13.0413 4.46747L12.1245 3.54985C11.7028 3.1285 11.2895 2.91898 10.8846 2.92128C10.4798 2.92357 10.0665 3.13309 9.64478 3.54985L8.71656 4.46747C8.67758 4.50559 8.6313 4.53541 8.58048 4.55512C8.52968 4.57483 8.47537 4.58404 8.42091 4.58217H7.11685C6.52555 4.58294 6.0859 4.72593 5.79788 5.01116C5.50987 5.29639 5.36586 5.74067 5.36586 6.34401V7.64474C5.36908 7.7572 5.32792 7.8664 5.25128 7.9487L4.33453 8.86633C3.91359 9.28614 3.70312 9.69983 3.70312 10.1074C3.70312 10.515 3.91627 10.9294 4.34256 11.3508L5.25931 12.2684C5.33573 12.3508 5.37686 12.4599 5.37389 12.5724V13.8697Z" fill="#4C82FB"/>
<path d="M10.8389 12.5584C10.7036 12.7646 10.5039 12.8805 10.2719 12.8805C10.0335 12.8805 9.8466 12.7839 9.67262 12.5584L8.15192 10.7026C8.04238 10.5673 7.98438 10.4255 7.98438 10.2709C7.98438 9.94864 8.22924 9.69733 8.54498 9.69733C8.73829 9.69733 8.89294 9.76821 9.04759 9.96797L10.2461 11.4952L12.7914 7.40983C12.9267 7.19075 13.1007 7.08765 13.294 7.08765C13.5969 7.08765 13.8804 7.30029 13.8804 7.61603C13.8804 7.76423 13.8031 7.91888 13.7193 8.0542L10.8389 12.5584Z" fill="white"/>
</svg>
