<svg width="17" height="17" viewBox="0 0 17 17" fill="none" xmlns="http://www.w3.org/2000/svg">
<g clip-path="url(#clip0_59_441)">
<path d="M12.6926 0.381836H4.54598C2.29634 0.381836 0.472656 2.20552 0.472656 4.45515V12.6018C0.472656 14.8514 2.29634 16.6751 4.54597 16.6751H12.6926C14.9422 16.6751 16.7659 14.8514 16.7659 12.6018V4.45515C16.7659 2.20552 14.9422 0.381836 12.6926 0.381836Z" fill="#F9F9F9"/>
<path d="M13.2362 4.99031C12.3446 4.11904 11.1248 3.58208 9.77971 3.58208C7.04802 3.58208 4.83353 5.79657 4.83353 8.52825C4.83353 11.2599 7.04802 13.4744 9.77971 13.4744C11.1248 13.4744 12.3446 12.9374 13.2362 12.0662C12.1727 13.4531 10.4987 14.3473 8.6159 14.3473C5.40214 14.3473 2.79688 11.742 2.79688 8.52825C2.79688 5.31449 5.40214 2.70923 8.6159 2.70923C10.4987 2.70923 12.1727 3.60343 13.2362 4.99031Z" fill="url(#paint0_linear_59_441)"/>
<path d="M6.08594 11.3586C6.79926 12.0556 7.77506 12.4852 8.85117 12.4852C11.0365 12.4852 12.8081 10.7136 12.8081 8.52827C12.8081 6.34293 11.0365 4.57133 8.85117 4.57133C7.77506 4.57133 6.79926 5.00089 6.08594 5.6979C6.93682 4.5884 8.27596 3.87305 9.78221 3.87305C12.3532 3.87305 14.4374 5.95726 14.4374 8.52827C14.4374 11.0993 12.3532 13.1835 9.78221 13.1835C8.27596 13.1835 6.93682 12.4682 6.08594 11.3586Z" fill="url(#paint1_linear_59_441)"/>
<path fill-rule="evenodd" clip-rule="evenodd" d="M12.1196 8.52804C12.1196 10.4563 10.5564 12.0195 8.62813 12.0195C6.69988 12.0195 5.13672 10.4563 5.13672 8.52804C5.13672 6.59979 6.69988 5.03662 8.62813 5.03662C10.5564 5.03662 12.1196 6.59979 12.1196 8.52804ZM10.9557 8.52804C10.9557 9.81352 9.91362 10.8556 8.62813 10.8556C7.34265 10.8556 6.30052 9.81352 6.30052 8.52804C6.30052 7.24256 7.34265 6.20043 8.62813 6.20043C9.91362 6.20043 10.9557 7.24256 10.9557 8.52804Z" fill="url(#paint2_linear_59_441)"/>
</g>
<defs>
<linearGradient id="paint0_linear_59_441" x1="2.79688" y1="8.32761" x2="14.4349" y2="8.32761" gradientUnits="userSpaceOnUse">
<stop stop-color="#00E0FF"/>
<stop offset="1" stop-color="#562EC8"/>
</linearGradient>
<linearGradient id="paint1_linear_59_441" x1="2.79937" y1="8.32763" x2="14.4374" y2="8.32763" gradientUnits="userSpaceOnUse">
<stop stop-color="#00E0FF"/>
<stop offset="1" stop-color="#562EC8"/>
</linearGradient>
<linearGradient id="paint2_linear_59_441" x1="2.80911" y1="8.3274" x2="14.4472" y2="8.3274" gradientUnits="userSpaceOnUse">
<stop stop-color="#00E0FF"/>
<stop offset="1" stop-color="#562EC8"/>
</linearGradient>
<clipPath id="clip0_59_441">
<rect width="16.2933" height="16.2933" fill="white" transform="translate(0.472656 0.381836)"/>
</clipPath>
</defs>
</svg>
